<svg width="407" height="351" viewBox="0 0 407 351" fill="none" xmlns="http://www.w3.org/2000/svg">
<g clip-path="url(#clip0_105_2)">
<path d="M15.5778 0H391.41C400.02 0 407 5.98945 407 13.3778V204.139C407 211.206 400.562 217.027 392.458 217.476C392.112 217.507 391.767 217.517 391.41 217.517H297.852V215.475H391.41C391.767 215.475 392.112 215.465 392.458 215.434C399.253 214.974 404.62 210.083 404.62 204.139V13.3676C404.62 7.11286 398.711 2.04242 391.422 2.04242H15.578C8.289 2.04242 2.38013 7.11292 2.38013 13.3677V158.512C2.38013 189.972 32.1001 215.475 68.7615 215.475L68.7616 217.517H15.578C6.97449 217.517 0 211.532 0 204.15V13.3676C0 5.98487 6.97443 0 15.5778 0Z" fill="#E6E6E6"/>
<path d="M89.106 48.6701H168.941C171.68 48.6701 173.908 46.7579 173.908 44.4077C173.908 42.0575 171.68 40.1453 168.941 40.1453H89.106C86.3671 40.1453 84.1388 42.0575 84.1388 44.4077C84.1388 46.7579 86.3671 48.6701 89.106 48.6701Z" fill="#F2F2F2"/>
<path d="M298.556 62.9671H378.391C381.13 62.9671 383.358 61.0549 383.358 58.7046C383.358 56.3544 381.13 54.4422 378.391 54.4422H298.556C295.817 54.4422 293.589 56.3544 293.589 58.7046C293.589 61.0549 295.817 62.9671 298.556 62.9671Z" fill="#F2F2F2"/>
<path d="M26.8024 63.0968H168.941C171.68 63.0968 173.908 61.1846 173.908 58.8344C173.908 56.4842 171.68 54.572 168.941 54.572H26.8024C24.0636 54.572 21.8352 56.4842 21.8352 58.8344C21.8352 61.1846 24.0636 63.0968 26.8024 63.0968Z" fill="#F2F2F2"/>
<path d="M299.042 339.726V98.8026C299.042 92.5861 293.149 87.5284 285.904 87.5284H81.3089C74.0646 87.5284 68.1706 92.5861 68.1706 98.8026V308.068C68.1706 314.285 74.0646 319.343 81.3089 319.343L285.904 351C293.149 351 299.042 345.942 299.042 339.726ZM70.5508 98.8026C70.5508 93.704 75.3673 89.5708 81.3089 89.5708H285.904C291.845 89.5708 296.662 93.704 296.662 98.8026V339.726C296.662 344.824 291.845 348.958 285.904 348.958C285.904 348.958 70.5508 278.111 70.5508 229.77V98.8026Z" fill="#3F3D56"/>
<path d="M32.6301 302.314C42.0552 302.314 49.7232 295.734 49.7232 287.645C49.7232 279.557 42.0552 272.977 32.6301 272.977C23.2043 272.977 15.5363 279.557 15.5363 287.645C15.5363 295.734 23.2043 302.314 32.6301 302.314ZM32.6301 275.02C40.7426 275.02 47.3431 280.684 47.3431 287.645C47.3431 294.607 40.7426 300.271 32.6301 300.271C24.517 300.271 17.9165 294.607 17.9165 287.645C17.9165 280.684 24.517 275.02 32.6301 275.02Z" fill="#3F3D56"/>
<path d="M36.0562 294.406C36.3804 294.406 36.7035 294.293 36.9383 294.071C37.3799 293.652 37.3427 293.007 36.8546 292.628L30.2512 287.497L36.2294 281.831C36.671 281.413 36.6326 280.767 36.1457 280.389C35.6587 280.01 34.9056 280.042 34.4652 280.46L27.6886 286.884C27.247 287.302 27.2842 287.947 27.7723 288.326L35.2578 294.142C35.4856 294.319 35.7715 294.406 36.0562 294.406Z" fill="#3F3D56"/>
<path d="M335.229 302.314C344.655 302.314 352.323 295.734 352.323 287.645C352.323 279.557 344.655 272.977 335.229 272.977C325.804 272.977 318.136 279.557 318.136 287.645C318.136 295.734 325.804 302.314 335.229 302.314ZM335.229 275.02C343.342 275.02 349.943 280.684 349.943 287.645C349.943 294.607 343.342 300.271 335.229 300.271C327.117 300.271 320.516 294.607 320.516 287.645C320.516 280.684 327.117 275.02 335.229 275.02Z" fill="#3F3D56"/>
<path d="M331.672 294.406C331.957 294.406 332.242 294.319 332.47 294.142L339.956 288.326C340.444 287.947 340.481 287.302 340.039 286.884L333.263 280.46C332.822 280.042 332.069 280.01 331.582 280.389C331.095 280.767 331.057 281.413 331.499 281.831L337.477 287.497L330.873 292.628C330.385 293.007 330.348 293.652 330.79 294.071C331.025 294.293 331.348 294.406 331.672 294.406Z" fill="#3F3D56"/>
<path d="M206.452 47.5422C202.871 47.3601 199.788 49.657 198.364 51.4383C196.999 53.1468 194.938 53.0734 193.743 57.4575C192.46 62.1657 194.162 70.7269 195.476 73.0837C196.764 75.393 192.853 77.0701 193.743 80.4431C194.226 82.2743 195.995 84.1146 198.364 84.7721C199.505 85.0885 201.173 85.239 206.452 83.4734C213.13 81.2393 216.47 80.1222 218.005 77.8456C219.533 75.5781 218.02 74.4136 216.849 68.3217C215.115 59.3024 217.467 56.836 213.961 52.3041C212.878 50.9044 210.434 47.7447 206.452 47.5422Z" fill="#2F2E41"/>
<path d="M279.074 193.566C278.459 191.784 277.427 190.268 276.206 189.191L271.604 171.892L262.075 174.012L267.77 191.332C267.428 192.805 267.523 194.559 268.137 196.342C269.54 200.414 273.126 203.095 276.147 202.328C279.167 201.562 280.477 197.639 279.074 193.566Z" fill="#FFB6B6"/>
<path d="M142.587 90.4769C142.757 92.3302 143.401 93.9967 144.334 95.2672L144.658 113.01L154.492 112.631L153.105 94.6736C153.795 93.2932 154.126 91.5606 153.956 89.7074C153.567 85.4737 150.706 82.2139 147.567 82.4264C144.427 82.6389 142.197 86.2432 142.587 90.4769Z" fill="#FFB6B6"/>
<path d="M260.432 336.191L253.262 336.336L249.266 308.695L259.846 308.48L260.432 336.191Z" fill="#FFB6B6"/>
<path d="M235.834 349.026C235.834 350.066 236.693 350.908 237.753 350.908H251.985C251.985 350.908 253.385 346.078 259.095 343.999L259.489 350.908H266.83L265.941 339.798C265.941 339.798 267.905 333.854 263.826 330.815C259.748 327.777 263.051 328.2 263.051 328.2L261.447 321.323L250.353 322.443L250.272 333.237L244.888 343.952L236.992 347.299C236.289 347.597 235.834 348.276 235.834 349.026Z" fill="#2F2E41"/>
<path d="M223.715 324.15L216.766 325.673L205.634 299.51L215.888 297.261L223.715 324.15Z" fill="#FFB6B6"/>
<path d="M203.107 341.4C203.379 342.413 204.437 343.068 205.47 342.864L219.337 340.12C219.337 340.12 219.437 335.142 224.457 332.016L226.65 338.673L233.804 337.257L230.028 326.602C230.028 326.602 230.385 320.431 225.615 318.257C220.845 316.083 224.175 315.858 224.175 315.858L220.811 309.466L210.294 312.696L213.041 323.231L210.601 334.709L203.783 339.494C203.176 339.919 202.91 340.669 203.107 341.4Z" fill="#2F2E41"/>
<path d="M205.585 148.913L202.697 191.047L176.571 253.026L202.015 301.982H225.314L203.837 257.049L235.912 195.26L245.586 323.423L265.083 323.397L268.261 191.791C268.261 191.791 274.326 153.87 251.22 138.504L205.585 148.913Z" fill="#2F2E41"/>
<path d="M207.904 82.679C210.989 81.6151 214.144 80.5375 217.465 80.3879C220.785 80.2384 224.36 81.1829 226.33 83.4811C228.008 85.4386 228.311 88.0745 229.988 90.033C234.098 94.8338 243.505 93.0019 248.787 96.868C253.63 100.413 252.877 106.965 251.063 112.202C249.249 117.438 246.824 123.206 249.576 128.132C251.726 131.98 256.888 135.001 256.281 139.236C255.756 142.899 251.187 144.924 247.206 146.321L224.438 154.312C220.027 155.86 215.454 157.435 210.69 157.319C205.926 157.202 200.889 154.923 199.515 151.007C198.221 147.315 200.417 143.318 199.674 139.516C199.098 136.575 196.853 134.116 194.903 131.648C187.759 122.601 183.841 111.704 183.804 100.775C194.834 98.8698 204.186 91.1049 206.768 81.7073" fill="#6C63FF"/>
<path d="M192.146 114.056L161.271 137.983C157.693 140.756 152.95 143.729 148.499 142.141C146.074 141.276 144.479 139.185 143.817 137.004C143.155 134.824 143.289 132.532 143.427 130.282C144.005 120.86 142.002 111.057 142.58 101.635C145.657 100.54 151.316 99.8265 154.392 98.732L158.268 119.853L180.428 102.854C182.994 100.886 186.048 98.7817 189.455 99.2015C193.022 99.6409 195.403 102.862 195.582 105.95C195.76 109.038 194.274 112 192.76 114.806" fill="#6C63FF"/>
<path d="M245.44 99.2304C247.288 97.1889 251.289 97.647 253.426 99.4693C255.563 101.292 256.324 103.956 256.994 106.476L276.994 181.653L264.695 185.356L248.882 144.368C245.999 136.896 243.103 129.374 241.842 121.579C240.581 113.783 241.037 105.615 244.671 98.3886" fill="#6C63FF"/>
<path d="M214.828 80.2595C204.778 80.2595 196.631 73.2687 196.631 64.6451C196.631 56.0216 204.778 49.0308 214.828 49.0308C224.877 49.0308 233.024 56.0216 233.024 64.6451C233.024 73.2687 224.877 80.2595 214.828 80.2595Z" fill="#FFB6B6"/>
<path d="M200.675 49.5265C201.199 46.9013 204.964 44.9563 208.185 44.5695C210.901 44.2433 211.586 45.2232 218.005 46.0566C221.436 46.5021 221.282 46.2275 223.204 46.5523C225.419 46.9267 231.263 47.9147 234.757 52.0049C237.381 55.0776 242.998 62.3191 241.327 66.2503C240.424 68.3743 234.456 67.684 235.334 69.3542C235.901 70.4326 237.024 70.5221 238.223 71.337C241.241 73.3899 242.158 78.2915 240.533 81.2509C238.611 84.7521 233.247 85.3232 224.936 86.2078C216.375 87.1192 208.358 86.4627 208.185 85.2164C208.096 84.5804 210.135 84.3968 211.073 82.738C212.171 80.7945 210.625 78.832 209.918 76.7896C207.711 70.4171 217.95 72.8371 215.738 68.1255C215.66 67.9603 215.571 67.7517 215.472 67.5081C213.835 63.4712 210.688 57.1406 210.688 57.1406C210.688 57.1406 208.612 60.9857 208.598 60.977C206.116 59.513 197.079 62.8443 195.507 60.977C192.978 57.9733 200.557 50.1188 200.675 49.5265Z" fill="#2F2E41"/>
<path d="M130.972 103.178C140.398 103.178 148.066 96.5982 148.066 88.5098C148.066 80.4219 140.398 73.8419 130.972 73.8419C121.546 73.8419 113.878 80.4219 113.878 88.5098C113.878 96.5982 121.546 103.178 130.972 103.178ZM130.972 75.8843C139.085 75.8843 145.686 81.5484 145.686 88.5098C145.686 95.4718 139.085 101.136 130.972 101.136C122.859 101.136 116.258 95.4718 116.258 88.5098C116.258 81.5484 122.859 75.8843 130.972 75.8843Z" fill="#3F3D56"/>
<path d="M130.972 96.3082C125.953 96.3082 121.884 92.8168 121.884 88.5099C121.884 84.203 125.953 80.7116 130.972 80.7116C135.991 80.7116 140.06 84.203 140.06 88.5099C140.06 92.8168 135.991 96.3082 130.972 96.3082Z" fill="#6C63FF"/>
<path d="M348.192 17.0428H381.585C383.263 17.0428 384.632 18.2173 384.632 19.6571C384.632 21.1072 383.263 22.2817 381.585 22.2817H348.192C346.514 22.2817 345.146 21.1072 345.146 19.6571C345.146 18.2173 346.514 17.0428 348.192 17.0428Z" fill="#E6E6E6"/>
<path d="M292.259 17.0428H325.653C327.331 17.0428 328.699 18.2173 328.699 19.6571C328.699 21.1072 327.331 22.2817 325.653 22.2817H292.259C290.582 22.2817 289.213 21.1072 289.213 19.6571C289.213 18.2173 290.582 17.0428 292.259 17.0428Z" fill="#E6E6E6"/>
<path d="M236.327 17.0428H269.72C271.398 17.0428 272.766 18.2173 272.766 19.6571C272.766 21.1072 271.398 22.2817 269.72 22.2817H236.327C234.649 22.2817 233.28 21.1072 233.28 19.6571C233.28 18.2173 234.649 17.0428 236.327 17.0428Z" fill="#3F3D56"/>
</g>
<defs>
<clipPath id="clip0_105_2">
<rect width="407" height="351" fill="white" transform="matrix(-1 0 0 1 407 0)"/>
</clipPath>
</defs>
</svg>
